<svg width="133" height="14" viewBox="0 0 133 14" fill="none" xmlns="http://www.w3.org/2000/svg">
<path d="M7.56836 2.91992H3.96484H0.0878906C0.270182 2.26237 0.686849 1.72201 1.33789 1.29883C1.98893 0.875651 2.8125 0.664062 3.80859 0.664062H8.35938H10.2246H14.873C15.6478 0.664062 16.3249 0.78125 16.9043 1.01562C17.4902 1.24349 17.9427 1.5332 18.2617 1.88477C18.5872 2.22982 18.75 2.57487 18.75 2.91992H10.2246H8.35938H7.56836ZM10.1758 8.31055V6.01562H18.75V7.09961V8.31055V11.4453V12.3242V13.7012H10.2246H8.35938H3.80859C3.03385 13.7012 2.36003 13.571 1.78711 13.3105C1.2207 13.0436 0.78125 12.6888 0.46875 12.2461C0.15625 11.8034 0 11.3118 0 10.7715V6.05469H3.96484V11.4453H8.35938H10.2246H14.7852V8.31055H10.1758ZM22.8711 3.59375C22.8711 3.05339 23.0273 2.56185 23.3398 2.11914C23.6523 1.67643 24.0918 1.32487 24.6582 1.06445C25.2311 0.797526 25.9049 0.664062 26.6797 0.664062H37.7441C38.5189 0.664062 39.1895 0.797526 39.7559 1.06445C40.3288 1.32487 40.7715 1.67643 41.084 2.11914C41.3965 2.56185 41.5527 3.05339 41.5527 3.59375V10.7812C41.5527 11.3151 41.3965 11.8034 41.084 12.2461C40.7715 12.6888 40.3288 13.0436 39.7559 13.3105C39.1895 13.571 38.5189 13.7012 37.7441 13.7012H26.6797C25.9049 13.7012 25.2311 13.571 24.6582 13.3105C24.0918 13.0436 23.6523 12.6888 23.3398 12.2461C23.0273 11.8034 22.8711 11.3151 22.8711 10.7812V3.59375ZM37.5879 11.4453V2.91992H26.8359V11.4453H37.5879ZM63.3984 0.664062V2.91992H56.0449V13.7012H52.0703V2.91992H44.7168V0.664062H52.0703H56.0449H63.3984ZM81.4844 0.664062H85.4492V13.7012H81.4844V8.31055H70.7324V13.7012H66.7676V0.664062H70.7324V6.05469H81.4844V0.664062ZM107.725 13.7012H102.949L100.869 10.8496H88.6621L90.6152 8.75977H99.3555L95.1074 2.91992L97.4707 0L107.725 13.7012ZM127.432 2.11914C127.712 1.66341 128.079 1.30859 128.535 1.05469C128.991 0.794271 129.486 0.664062 130.02 0.664062H132.549V13.7012H128.584V5.48828L123.281 13.7012H120.137L114.854 5.48828V13.7012H110.889V0.664062H113.418C113.945 0.664062 114.437 0.794271 114.893 1.05469C115.355 1.3151 115.726 1.67318 116.006 2.12891L121.709 10.6934L127.432 2.11914Z" fill="black"/>
</svg>
